<svg width="114" height="114" viewBox="0 0 114 114" fill="none" xmlns="http://www.w3.org/2000/svg">
<path d="M39.9292 111.384C26.873 107.285 15.7269 98.6268 8.52708 86.9896C1.32729 75.3524 -1.44561 61.5134 0.714918 48.0006C2.87546 34.4879 9.82521 22.2035 20.2946 13.3914C30.764 4.57926 44.0542 -0.172273 57.7374 0.00476801C71.4207 0.181809 84.5835 5.2756 94.8214 14.3556C105.059 23.4356 111.689 35.8958 113.499 49.4599C115.309 63.024 112.179 76.7866 104.681 88.2337C97.1823 99.6807 85.8159 108.048 72.658 111.807L57 57L39.9292 111.384Z" fill="white"/>
<circle cx="56.7617" cy="56.7678" r="45.2066" fill="#00D5E4"/>
<path d="M46.2509 52.6342C46.1335 52.6342 46.0375 52.5969 45.9629 52.5222C45.8882 52.4369 45.8509 52.3409 45.8509 52.2342V41.8342C45.8509 41.7169 45.8882 41.6209 45.9629 41.5462C46.0375 41.4715 46.1335 41.4342 46.2509 41.4342H50.7309C51.6162 41.4342 52.3842 41.5729 53.0349 41.8502C53.6962 42.1169 54.2082 42.5222 54.5709 43.0662C54.9442 43.6102 55.1309 44.2982 55.1309 45.1302C55.1309 45.9515 54.9442 46.6289 54.5709 47.1622C54.2082 47.6955 53.6962 48.0902 53.0349 48.3462C52.3842 48.6022 51.6162 48.7302 50.7309 48.7302H48.8269V52.2342C48.8269 52.3409 48.7842 52.4369 48.6989 52.5222C48.6242 52.5969 48.5282 52.6342 48.4109 52.6342H46.2509ZM48.7789 46.5222H50.6509C51.1095 46.5222 51.4722 46.4049 51.7389 46.1702C52.0162 45.9355 52.1549 45.5782 52.1549 45.0982C52.1549 44.6929 52.0375 44.3515 51.8029 44.0742C51.5682 43.7969 51.1842 43.6582 50.6509 43.6582H48.7789V46.5222ZM57.0634 52.6342C56.9567 52.6342 56.8607 52.5969 56.7754 52.5222C56.7007 52.4369 56.6634 52.3409 56.6634 52.2342V41.8342C56.6634 41.7169 56.7007 41.6209 56.7754 41.5462C56.8607 41.4715 56.9567 41.4342 57.0634 41.4342H58.7914C58.9727 41.4342 59.106 41.4822 59.1914 41.5782C59.2767 41.6635 59.33 41.7329 59.3514 41.7862L62.1674 46.8262L64.9834 41.7862C65.0154 41.7329 65.0687 41.6635 65.1434 41.5782C65.2287 41.4822 65.362 41.4342 65.5434 41.4342H67.2554C67.3727 41.4342 67.4687 41.4715 67.5434 41.5462C67.6287 41.6209 67.6714 41.7169 67.6714 41.8342V52.2342C67.6714 52.3409 67.6287 52.4369 67.5434 52.5222C67.4687 52.5969 67.3727 52.6342 67.2554 52.6342H65.3514C65.234 52.6342 65.1327 52.5969 65.0474 52.5222C64.9727 52.4369 64.9354 52.3409 64.9354 52.2342V46.2342L63.1434 49.5782C63.09 49.6742 63.0207 49.7595 62.9354 49.8342C62.85 49.9089 62.7327 49.9462 62.5834 49.9462H61.7514C61.602 49.9462 61.4847 49.9089 61.3994 49.8342C61.314 49.7595 61.2447 49.6742 61.1914 49.5782L59.3834 46.2342V52.2342C59.3834 52.3409 59.346 52.4369 59.2714 52.5222C59.1967 52.5969 59.1007 52.6342 58.9834 52.6342H57.0634ZM42.5305 70.6342C42.4345 70.6342 42.3545 70.6022 42.2905 70.5382C42.2265 70.4635 42.1945 70.3782 42.1945 70.2822C42.1945 70.2289 42.1998 70.1862 42.2105 70.1542C42.2318 70.1222 42.2478 70.0955 42.2585 70.0742L44.5145 66.9862C44.3652 67.0182 44.2105 67.0342 44.0505 67.0342C43.5705 67.0022 43.1012 66.8955 42.6425 66.7142C42.1838 66.5222 41.7678 66.2662 41.3945 65.9462C41.0318 65.6155 40.7438 65.2262 40.5305 64.7782C40.3172 64.3302 40.2105 63.8289 40.2105 63.2742C40.2105 62.7622 40.3065 62.2715 40.4985 61.8022C40.6905 61.3222 40.9785 60.8955 41.3625 60.5222C41.7465 60.1382 42.2212 59.8342 42.7865 59.6102C43.3625 59.3862 44.0292 59.2742 44.7865 59.2742C45.5545 59.2742 46.2265 59.3755 46.8025 59.5782C47.3892 59.7702 47.8798 60.0475 48.2745 60.4102C48.6692 60.7622 48.9678 61.1782 49.1705 61.6582C49.3732 62.1275 49.4745 62.6289 49.4745 63.1622C49.4745 63.6529 49.3838 64.1062 49.2025 64.5222C49.0318 64.9382 48.8185 65.3329 48.5625 65.7062C48.3172 66.0689 48.0612 66.4369 47.7945 66.8102L45.2345 70.3142C45.1918 70.3675 45.1278 70.4369 45.0425 70.5222C44.9572 70.5969 44.8292 70.6342 44.6585 70.6342H42.5305ZM44.8185 64.9222C45.1385 64.9222 45.4265 64.8582 45.6825 64.7302C45.9385 64.5915 46.1412 64.3995 46.2905 64.1542C46.4398 63.9089 46.5145 63.6102 46.5145 63.2582C46.5145 62.9062 46.4398 62.6075 46.2905 62.3622C46.1412 62.1062 45.9385 61.9142 45.6825 61.7862C45.4265 61.6475 45.1385 61.5782 44.8185 61.5782C44.5092 61.5782 44.2265 61.6475 43.9705 61.7862C43.7145 61.9142 43.5118 62.1062 43.3625 62.3622C43.2132 62.6075 43.1385 62.9062 43.1385 63.2582C43.1385 63.6102 43.2132 63.9089 43.3625 64.1542C43.5118 64.3995 43.7145 64.5915 43.9705 64.7302C44.2265 64.8582 44.5092 64.9222 44.8185 64.9222ZM55.4205 70.7942C54.6525 70.7942 53.9858 70.6875 53.4205 70.4742C52.8658 70.2502 52.4018 69.9462 52.0285 69.5622C51.6552 69.1782 51.3725 68.7302 51.1805 68.2182C50.9885 67.7062 50.8765 67.1569 50.8445 66.5702C50.8338 66.2822 50.8232 65.9569 50.8125 65.5942C50.8125 65.2209 50.8125 64.8475 50.8125 64.4742C50.8232 64.0902 50.8338 63.7489 50.8445 63.4502C50.8765 62.8635 50.9885 62.3195 51.1805 61.8182C51.3832 61.3062 51.6712 60.8635 52.0445 60.4902C52.4285 60.1062 52.8978 59.8075 53.4525 59.5942C54.0178 59.3809 54.6738 59.2742 55.4205 59.2742C56.1778 59.2742 56.8338 59.3809 57.3885 59.5942C57.9538 59.8075 58.4232 60.1062 58.7965 60.4902C59.1698 60.8635 59.4578 61.3062 59.6605 61.8182C59.8632 62.3195 59.9805 62.8635 60.0125 63.4502C60.0232 63.7489 60.0285 64.0902 60.0285 64.4742C60.0392 64.8475 60.0392 65.2209 60.0285 65.5942C60.0285 65.9569 60.0232 66.2822 60.0125 66.5702C59.9805 67.1569 59.8632 67.7062 59.6605 68.2182C59.4685 68.7302 59.1858 69.1782 58.8125 69.5622C58.4498 69.9462 57.9858 70.2502 57.4205 70.4742C56.8658 70.6875 56.1992 70.7942 55.4205 70.7942ZM55.4205 68.4742C55.9752 68.4742 56.3752 68.2982 56.6205 67.9462C56.8765 67.5835 57.0098 67.0982 57.0205 66.4902C57.0418 66.1809 57.0525 65.8555 57.0525 65.5142C57.0632 65.1729 57.0632 64.8315 57.0525 64.4902C57.0525 64.1489 57.0418 63.8342 57.0205 63.5462C57.0098 62.9595 56.8765 62.4849 56.6205 62.1222C56.3752 61.7595 55.9752 61.5729 55.4205 61.5622C54.8765 61.5729 54.4765 61.7595 54.2205 62.1222C53.9752 62.4849 53.8418 62.9595 53.8205 63.5462C53.8205 63.8342 53.8152 64.1489 53.8045 64.4902C53.8045 64.8315 53.8045 65.1729 53.8045 65.5142C53.8152 65.8555 53.8205 66.1809 53.8205 66.4902C53.8418 67.0982 53.9805 67.5835 54.2365 67.9462C54.4925 68.2982 54.8872 68.4742 55.4205 68.4742ZM62.6635 70.6342C62.4182 70.6342 62.2955 70.5275 62.2955 70.3142C62.2955 70.2502 62.3168 70.1915 62.3595 70.1382L70.2635 59.7382C70.3382 59.6422 70.4128 59.5675 70.4875 59.5142C70.5622 59.4609 70.6742 59.4342 70.8235 59.4342H71.9595C72.2048 59.4342 72.3275 59.5409 72.3275 59.7542C72.3275 59.8182 72.3062 59.8769 72.2635 59.9302L64.3595 70.3302C64.2848 70.4262 64.2102 70.5009 64.1355 70.5542C64.0608 70.6075 63.9488 70.6342 63.7995 70.6342H62.6635ZM70.7115 70.7142C69.9862 70.7142 69.4048 70.5222 68.9675 70.1382C68.5408 69.7542 68.3008 69.2422 68.2475 68.6022C68.2368 68.3249 68.2315 68.0795 68.2315 67.8662C68.2315 67.6529 68.2368 67.3969 68.2475 67.0982C68.2902 66.4475 68.5195 65.9302 68.9355 65.5462C69.3622 65.1515 69.9542 64.9542 70.7115 64.9542C71.4795 64.9542 72.0715 65.1515 72.4875 65.5462C72.9035 65.9302 73.1328 66.4475 73.1755 67.0982C73.1968 67.3969 73.2075 67.6529 73.2075 67.8662C73.2075 68.0795 73.1968 68.3249 73.1755 68.6022C73.1328 69.2422 72.8928 69.7542 72.4555 70.1382C72.0182 70.5222 71.4368 70.7142 70.7115 70.7142ZM70.7115 69.3062C70.8928 69.3062 71.0315 69.2689 71.1275 69.1942C71.2342 69.1089 71.3142 69.0075 71.3675 68.8902C71.4208 68.7622 71.4528 68.6342 71.4635 68.5062C71.4848 68.2609 71.4955 68.0369 71.4955 67.8342C71.4955 67.6315 71.4848 67.4129 71.4635 67.1782C71.4528 66.9755 71.3888 66.7942 71.2715 66.6342C71.1648 66.4635 70.9782 66.3782 70.7115 66.3782C70.4555 66.3782 70.2688 66.4635 70.1515 66.6342C70.0448 66.7942 69.9862 66.9755 69.9755 67.1782C69.9648 67.4129 69.9595 67.6315 69.9595 67.8342C69.9595 68.0369 69.9648 68.2609 69.9755 68.5062C69.9862 68.6342 70.0128 68.7622 70.0555 68.8902C70.1088 69.0075 70.1888 69.1089 70.2955 69.1942C70.4022 69.2689 70.5408 69.3062 70.7115 69.3062ZM63.9435 65.0822C63.2075 65.0822 62.6208 64.8955 62.1835 64.5222C61.7568 64.1382 61.5222 63.6262 61.4795 62.9862C61.4582 62.7089 61.4475 62.4635 61.4475 62.2502C61.4582 62.0369 61.4688 61.7809 61.4795 61.4822C61.5115 60.8422 61.7355 60.3302 62.1515 59.9462C62.5782 59.5515 63.1755 59.3542 63.9435 59.3542C64.7115 59.3542 65.3035 59.5515 65.7195 59.9462C66.1355 60.3302 66.3595 60.8422 66.3915 61.4822C66.4128 61.7809 66.4235 62.0369 66.4235 62.2502C66.4235 62.4635 66.4128 62.7089 66.3915 62.9862C66.3595 63.6262 66.1248 64.1382 65.6875 64.5222C65.2502 64.8955 64.6688 65.0822 63.9435 65.0822ZM63.9435 63.6902C64.1142 63.6902 64.2528 63.6529 64.3595 63.5782C64.4662 63.5035 64.5462 63.4075 64.5995 63.2902C64.6528 63.1622 64.6795 63.0342 64.6795 62.9062C64.7008 62.6609 64.7115 62.4369 64.7115 62.2342C64.7115 62.0315 64.7008 61.8129 64.6795 61.5782C64.6688 61.3755 64.6048 61.1942 64.4875 61.0342C64.3808 60.8635 64.1995 60.7782 63.9435 60.7782C63.6768 60.7782 63.4902 60.8635 63.3835 61.0342C63.2768 61.1942 63.2128 61.3755 63.1915 61.5782C63.1808 61.8129 63.1755 62.0315 63.1755 62.2342C63.1755 62.4369 63.1808 62.6609 63.1915 62.9062C63.2128 63.0342 63.2448 63.1622 63.2875 63.2902C63.3302 63.4075 63.4048 63.5035 63.5115 63.5782C63.6182 63.6529 63.7622 63.6902 63.9435 63.6902Z" fill="white"/>
</svg>
