<svg width="114" height="114" viewBox="0 0 114 114" fill="none" xmlns="http://www.w3.org/2000/svg">
<path d="M0.881296 47.0155C3.24995 33.7023 10.2745 21.6647 20.7002 13.0532C31.1259 4.44161 44.2736 -0.182954 57.7947 0.00555911C71.3157 0.19408 84.3293 5.1834 94.5109 14.0823C104.692 22.9811 111.379 35.2099 113.375 48.584L57 57L0.881296 47.0155Z" fill="white"/>
<circle cx="56.6138" cy="56.7318" r="44.9512" fill="#08AFDD"/>
<path d="M51.0197 53.0135C50.017 53.0135 49.153 52.8482 48.4277 52.5175C47.7024 52.1868 47.137 51.7015 46.7317 51.0615C46.337 50.4215 46.1184 49.6268 46.0757 48.6775C46.065 48.2402 46.0597 47.7708 46.0597 47.2695C46.0597 46.7682 46.065 46.2882 46.0757 45.8295C46.1184 44.9015 46.3424 44.1122 46.7477 43.4615C47.153 42.8108 47.7184 42.3202 48.4437 41.9895C49.169 41.6588 50.0277 41.4935 51.0197 41.4935C51.7237 41.4935 52.3744 41.5842 52.9717 41.7655C53.569 41.9362 54.0917 42.1922 54.5397 42.5335C54.9877 42.8642 55.3344 43.2695 55.5797 43.7495C55.8357 44.2188 55.969 44.7522 55.9797 45.3495C55.9904 45.4455 55.9584 45.5255 55.8837 45.5895C55.8197 45.6535 55.7397 45.6855 55.6437 45.6855H53.4837C53.345 45.6855 53.2384 45.6588 53.1637 45.6055C53.089 45.5415 53.025 45.4295 52.9717 45.2695C52.8224 44.7042 52.577 44.3202 52.2357 44.1175C51.905 43.9042 51.4944 43.7975 51.0037 43.7975C50.417 43.7975 49.953 43.9628 49.6117 44.2935C49.2704 44.6135 49.0837 45.1522 49.0517 45.9095C49.0197 46.7842 49.0197 47.6802 49.0517 48.5975C49.0837 49.3548 49.2704 49.8988 49.6117 50.2295C49.953 50.5495 50.417 50.7095 51.0037 50.7095C51.4944 50.7095 51.9104 50.6028 52.2517 50.3895C52.593 50.1762 52.833 49.7922 52.9717 49.2375C53.0144 49.0775 53.073 48.9708 53.1477 48.9175C53.233 48.8535 53.345 48.8215 53.4837 48.8215H55.6437C55.7397 48.8215 55.8197 48.8535 55.8837 48.9175C55.9584 48.9815 55.9904 49.0615 55.9797 49.1575C55.969 49.7548 55.8357 50.2935 55.5797 50.7735C55.3344 51.2428 54.9877 51.6482 54.5397 51.9895C54.0917 52.3202 53.569 52.5762 52.9717 52.7575C52.3744 52.9282 51.7237 53.0135 51.0197 53.0135ZM62.2381 53.0135C61.2567 53.0135 60.4034 52.8535 59.6781 52.5335C58.9527 52.2135 58.3874 51.7335 57.9821 51.0935C57.5767 50.4428 57.3527 49.6322 57.3101 48.6615C57.2994 48.2028 57.2941 47.7442 57.2941 47.2855C57.2941 46.8162 57.2994 46.3522 57.3101 45.8935C57.3527 44.9335 57.5767 44.1282 57.9821 43.4775C58.3981 42.8162 58.9687 42.3202 59.6941 41.9895C60.4301 41.6588 61.2781 41.4935 62.2381 41.4935C63.2087 41.4935 64.0567 41.6588 64.7821 41.9895C65.5074 42.3202 66.0781 42.8162 66.4941 43.4775C66.9101 44.1282 67.1341 44.9335 67.1661 45.8935C67.1874 46.3522 67.1981 46.8162 67.1981 47.2855C67.1981 47.7442 67.1874 48.2028 67.1661 48.6615C67.1341 49.6322 66.9101 50.4428 66.4941 51.0935C66.0887 51.7335 65.5234 52.2135 64.7981 52.5335C64.0727 52.8535 63.2194 53.0135 62.2381 53.0135ZM62.2381 50.7095C62.8034 50.7095 63.2621 50.5388 63.6141 50.1975C63.9767 49.8562 64.1687 49.3122 64.1901 48.5655C64.2114 48.0962 64.2221 47.6535 64.2221 47.2375C64.2221 46.8215 64.2114 46.3895 64.1901 45.9415C64.1687 45.4402 64.0727 45.0348 63.9021 44.7255C63.7421 44.4055 63.5181 44.1708 63.2301 44.0215C62.9421 43.8722 62.6114 43.7975 62.2381 43.7975C61.8754 43.7975 61.5501 43.8722 61.2621 44.0215C60.9741 44.1708 60.7447 44.4055 60.5741 44.7255C60.4034 45.0348 60.3074 45.4402 60.2861 45.9415C60.2754 46.3895 60.2701 46.8215 60.2701 47.2375C60.2701 47.6535 60.2754 48.0962 60.2861 48.5655C60.3181 49.3122 60.5101 49.8562 60.8621 50.1975C61.2247 50.5388 61.6834 50.7095 62.2381 50.7095ZM44.9686 71.0135C44.1473 71.0135 43.438 70.9175 42.8406 70.7255C42.254 70.5228 41.774 70.2668 41.4006 69.9575C41.0273 69.6375 40.75 69.3015 40.5686 68.9495C40.3873 68.5868 40.2913 68.2402 40.2806 67.9095C40.2806 67.8135 40.3126 67.7335 40.3766 67.6695C40.4513 67.6055 40.5366 67.5735 40.6326 67.5735H42.7286C42.846 67.5735 42.942 67.6002 43.0166 67.6535C43.0913 67.6962 43.1606 67.7708 43.2246 67.8775C43.31 68.0802 43.4326 68.2455 43.5926 68.3735C43.7633 68.5015 43.966 68.5922 44.2006 68.6455C44.4353 68.6882 44.6913 68.7095 44.9686 68.7095C45.5126 68.7095 45.934 68.5868 46.2326 68.3415C46.542 68.0855 46.6966 67.7388 46.6966 67.3015C46.6966 66.8428 46.5526 66.5175 46.2646 66.3255C45.9766 66.1228 45.566 66.0215 45.0326 66.0215H43.2566C43.1393 66.0215 43.0433 65.9842 42.9686 65.9095C42.894 65.8348 42.8566 65.7388 42.8566 65.6215V64.7255C42.8566 64.5975 42.8833 64.4855 42.9366 64.3895C42.99 64.2935 43.0486 64.2242 43.1126 64.1815L45.7366 61.9575H41.2886C41.182 61.9575 41.086 61.9202 41.0006 61.8455C40.926 61.7708 40.8886 61.6748 40.8886 61.5575V60.0535C40.8886 59.9362 40.926 59.8402 41.0006 59.7655C41.086 59.6908 41.182 59.6535 41.2886 59.6535H48.6486C48.766 59.6535 48.862 59.6908 48.9366 59.7655C49.022 59.8402 49.0646 59.9362 49.0646 60.0535V61.4135C49.0646 61.5308 49.038 61.6375 48.9846 61.7335C48.9313 61.8188 48.8726 61.8882 48.8086 61.9415L46.3766 64.1975L46.4886 64.2295C47.1073 64.3042 47.6513 64.4642 48.1206 64.7095C48.6006 64.9548 48.9793 65.3068 49.2566 65.7655C49.534 66.2135 49.6726 66.7842 49.6726 67.4775C49.6726 68.2028 49.4646 68.8322 49.0486 69.3655C48.6433 69.8882 48.0886 70.2935 47.3846 70.5815C46.6806 70.8695 45.8753 71.0135 44.9686 71.0135ZM53.0995 70.8535C53.0035 70.8535 52.9235 70.8215 52.8595 70.7575C52.7955 70.6828 52.7635 70.5975 52.7635 70.5015C52.7635 70.4482 52.7688 70.4055 52.7795 70.3735C52.8008 70.3415 52.8168 70.3148 52.8275 70.2935L55.0835 67.2055C54.9342 67.2375 54.7795 67.2535 54.6195 67.2535C54.1395 67.2215 53.6702 67.1148 53.2115 66.9335C52.7528 66.7415 52.3368 66.4855 51.9635 66.1655C51.6008 65.8348 51.3128 65.4455 51.0995 64.9975C50.8862 64.5495 50.7795 64.0482 50.7795 63.4935C50.7795 62.9815 50.8755 62.4908 51.0675 62.0215C51.2595 61.5415 51.5475 61.1148 51.9315 60.7415C52.3155 60.3575 52.7902 60.0535 53.3555 59.8295C53.9315 59.6055 54.5982 59.4935 55.3555 59.4935C56.1235 59.4935 56.7955 59.5948 57.3715 59.7975C57.9582 59.9895 58.4488 60.2668 58.8435 60.6295C59.2382 60.9815 59.5368 61.3975 59.7395 61.8775C59.9422 62.3468 60.0435 62.8482 60.0435 63.3815C60.0435 63.8722 59.9528 64.3255 59.7715 64.7415C59.6008 65.1575 59.3875 65.5522 59.1315 65.9255C58.8862 66.2882 58.6302 66.6562 58.3635 67.0295L55.8035 70.5335C55.7608 70.5868 55.6968 70.6562 55.6115 70.7415C55.5262 70.8162 55.3982 70.8535 55.2275 70.8535H53.0995ZM55.3875 65.1415C55.7075 65.1415 55.9955 65.0775 56.2515 64.9495C56.5075 64.8108 56.7102 64.6188 56.8595 64.3735C57.0088 64.1282 57.0835 63.8295 57.0835 63.4775C57.0835 63.1255 57.0088 62.8268 56.8595 62.5815C56.7102 62.3255 56.5075 62.1335 56.2515 62.0055C55.9955 61.8668 55.7075 61.7975 55.3875 61.7975C55.0782 61.7975 54.7955 61.8668 54.5395 62.0055C54.2835 62.1335 54.0808 62.3255 53.9315 62.5815C53.7822 62.8268 53.7075 63.1255 53.7075 63.4775C53.7075 63.8295 53.7822 64.1282 53.9315 64.3735C54.0808 64.6188 54.2835 64.8108 54.5395 64.9495C54.7955 65.0775 55.0782 65.1415 55.3875 65.1415ZM62.3575 70.8535C62.1122 70.8535 61.9895 70.7468 61.9895 70.5335C61.9895 70.4695 62.0108 70.4108 62.0535 70.3575L69.9575 59.9575C70.0322 59.8615 70.1068 59.7868 70.1815 59.7335C70.2562 59.6802 70.3682 59.6535 70.5175 59.6535H71.6535C71.8988 59.6535 72.0215 59.7602 72.0215 59.9735C72.0215 60.0375 72.0002 60.0962 71.9575 60.1495L64.0535 70.5495C63.9788 70.6455 63.9042 70.7202 63.8295 70.7735C63.7548 70.8268 63.6428 70.8535 63.4935 70.8535H62.3575ZM70.4055 70.9335C69.6802 70.9335 69.0988 70.7415 68.6615 70.3575C68.2348 69.9735 67.9948 69.4615 67.9415 68.8215C67.9308 68.5442 67.9255 68.2988 67.9255 68.0855C67.9255 67.8722 67.9308 67.6162 67.9415 67.3175C67.9842 66.6668 68.2135 66.1495 68.6295 65.7655C69.0562 65.3708 69.6482 65.1735 70.4055 65.1735C71.1735 65.1735 71.7655 65.3708 72.1815 65.7655C72.5975 66.1495 72.8268 66.6668 72.8695 67.3175C72.8908 67.6162 72.9015 67.8722 72.9015 68.0855C72.9015 68.2988 72.8908 68.5442 72.8695 68.8215C72.8268 69.4615 72.5868 69.9735 72.1495 70.3575C71.7122 70.7415 71.1308 70.9335 70.4055 70.9335ZM70.4055 69.5255C70.5868 69.5255 70.7255 69.4882 70.8215 69.4135C70.9282 69.3282 71.0082 69.2268 71.0615 69.1095C71.1148 68.9815 71.1468 68.8535 71.1575 68.7255C71.1788 68.4802 71.1895 68.2562 71.1895 68.0535C71.1895 67.8508 71.1788 67.6322 71.1575 67.3975C71.1468 67.1948 71.0828 67.0135 70.9655 66.8535C70.8588 66.6828 70.6722 66.5975 70.4055 66.5975C70.1495 66.5975 69.9628 66.6828 69.8455 66.8535C69.7388 67.0135 69.6802 67.1948 69.6695 67.3975C69.6588 67.6322 69.6535 67.8508 69.6535 68.0535C69.6535 68.2562 69.6588 68.4802 69.6695 68.7255C69.6802 68.8535 69.7068 68.9815 69.7495 69.1095C69.8028 69.2268 69.8828 69.3282 69.9895 69.4135C70.0962 69.4882 70.2348 69.5255 70.4055 69.5255ZM63.6375 65.3015C62.9015 65.3015 62.3148 65.1148 61.8775 64.7415C61.4508 64.3575 61.2162 63.8455 61.1735 63.2055C61.1522 62.9282 61.1415 62.6828 61.1415 62.4695C61.1522 62.2562 61.1628 62.0002 61.1735 61.7015C61.2055 61.0615 61.4295 60.5495 61.8455 60.1655C62.2722 59.7708 62.8695 59.5735 63.6375 59.5735C64.4055 59.5735 64.9975 59.7708 65.4135 60.1655C65.8295 60.5495 66.0535 61.0615 66.0855 61.7015C66.1068 62.0002 66.1175 62.2562 66.1175 62.4695C66.1175 62.6828 66.1068 62.9282 66.0855 63.2055C66.0535 63.8455 65.8188 64.3575 65.3815 64.7415C64.9442 65.1148 64.3628 65.3015 63.6375 65.3015ZM63.6375 63.9095C63.8082 63.9095 63.9468 63.8722 64.0535 63.7975C64.1602 63.7228 64.2402 63.6268 64.2935 63.5095C64.3468 63.3815 64.3735 63.2535 64.3735 63.1255C64.3948 62.8802 64.4055 62.6562 64.4055 62.4535C64.4055 62.2508 64.3948 62.0322 64.3735 61.7975C64.3628 61.5948 64.2988 61.4135 64.1815 61.2535C64.0748 61.0828 63.8935 60.9975 63.6375 60.9975C63.3708 60.9975 63.1842 61.0828 63.0775 61.2535C62.9708 61.4135 62.9068 61.5948 62.8855 61.7975C62.8748 62.0322 62.8695 62.2508 62.8695 62.4535C62.8695 62.6562 62.8748 62.8802 62.8855 63.1255C62.9068 63.2535 62.9388 63.3815 62.9815 63.5095C63.0242 63.6268 63.0988 63.7228 63.2055 63.7975C63.3122 63.8722 63.4562 63.9095 63.6375 63.9095Z" fill="white"/>
</svg>
